<svg viewBox="0 0 240 48" xmlns="http://www.w3.org/2000/svg" shape-rendering="crispEdges" role="img" aria-label="mybrain os pixel art banner">
  <rect width="240" height="48" fill="#FAF6F0"/>
  <g fill="#1A1A1A">
    <rect x="92" y="12" width="1" height="1"/>
    <rect x="96" y="12" width="1" height="1"/>
    <rect x="92" y="13" width="1" height="1"/>
    <rect x="93" y="13" width="1" height="1"/>
    <rect x="95" y="13" width="1" height="1"/>
    <rect x="96" y="13" width="1" height="1"/>
    <rect x="92" y="14" width="1" height="1"/>
    <rect x="94" y="14" width="1" height="1"/>
    <rect x="96" y="14" width="1" height="1"/>
    <rect x="92" y="15" width="1" height="1"/>
    <rect x="94" y="15" width="1" height="1"/>
    <rect x="96" y="15" width="1" height="1"/>
    <rect x="92" y="16" width="1" height="1"/>
    <rect x="96" y="16" width="1" height="1"/>
    <rect x="92" y="17" width="1" height="1"/>
    <rect x="96" y="17" width="1" height="1"/>
    <rect x="92" y="18" width="1" height="1"/>
    <rect x="96" y="18" width="1" height="1"/>
    <rect x="98" y="12" width="1" height="1"/>
    <rect x="102" y="12" width="1" height="1"/>
    <rect x="98" y="13" width="1" height="1"/>
    <rect x="102" y="13" width="1" height="1"/>
    <rect x="99" y="14" width="1" height="1"/>
    <rect x="101" y="14" width="1" height="1"/>
    <rect x="100" y="15" width="1" height="1"/>
    <rect x="100" y="16" width="1" height="1"/>
    <rect x="100" y="17" width="1" height="1"/>
    <rect x="100" y="18" width="1" height="1"/>
    <rect x="104" y="12" width="1" height="1"/>
    <rect x="105" y="12" width="1" height="1"/>
    <rect x="106" y="12" width="1" height="1"/>
    <rect x="107" y="12" width="1" height="1"/>
    <rect x="104" y="13" width="1" height="1"/>
    <rect x="108" y="13" width="1" height="1"/>
    <rect x="104" y="14" width="1" height="1"/>
    <rect x="108" y="14" width="1" height="1"/>
    <rect x="104" y="15" width="1" height="1"/>
    <rect x="105" y="15" width="1" height="1"/>
    <rect x="106" y="15" width="1" height="1"/>
    <rect x="107" y="15" width="1" height="1"/>
    <rect x="104" y="16" width="1" height="1"/>
    <rect x="108" y="16" width="1" height="1"/>
    <rect x="104" y="17" width="1" height="1"/>
    <rect x="108" y="17" width="1" height="1"/>
    <rect x="104" y="18" width="1" height="1"/>
    <rect x="105" y="18" width="1" height="1"/>
    <rect x="106" y="18" width="1" height="1"/>
    <rect x="107" y="18" width="1" height="1"/>
    <rect x="110" y="12" width="1" height="1"/>
    <rect x="111" y="12" width="1" height="1"/>
    <rect x="112" y="12" width="1" height="1"/>
    <rect x="113" y="12" width="1" height="1"/>
    <rect x="110" y="13" width="1" height="1"/>
    <rect x="114" y="13" width="1" height="1"/>
    <rect x="110" y="14" width="1" height="1"/>
    <rect x="114" y="14" width="1" height="1"/>
    <rect x="110" y="15" width="1" height="1"/>
    <rect x="111" y="15" width="1" height="1"/>
    <rect x="112" y="15" width="1" height="1"/>
    <rect x="113" y="15" width="1" height="1"/>
    <rect x="110" y="16" width="1" height="1"/>
    <rect x="112" y="16" width="1" height="1"/>
    <rect x="110" y="17" width="1" height="1"/>
    <rect x="113" y="17" width="1" height="1"/>
    <rect x="110" y="18" width="1" height="1"/>
    <rect x="114" y="18" width="1" height="1"/>
    <rect x="117" y="12" width="1" height="1"/>
    <rect x="118" y="12" width="1" height="1"/>
    <rect x="119" y="12" width="1" height="1"/>
    <rect x="116" y="13" width="1" height="1"/>
    <rect x="120" y="13" width="1" height="1"/>
    <rect x="116" y="14" width="1" height="1"/>
    <rect x="120" y="14" width="1" height="1"/>
    <rect x="116" y="15" width="1" height="1"/>
    <rect x="117" y="15" width="1" height="1"/>
    <rect x="118" y="15" width="1" height="1"/>
    <rect x="119" y="15" width="1" height="1"/>
    <rect x="120" y="15" width="1" height="1"/>
    <rect x="116" y="16" width="1" height="1"/>
    <rect x="120" y="16" width="1" height="1"/>
    <rect x="116" y="17" width="1" height="1"/>
    <rect x="120" y="17" width="1" height="1"/>
    <rect x="116" y="18" width="1" height="1"/>
    <rect x="120" y="18" width="1" height="1"/>
    <rect x="123" y="12" width="1" height="1"/>
    <rect x="124" y="12" width="1" height="1"/>
    <rect x="125" y="12" width="1" height="1"/>
    <rect x="124" y="13" width="1" height="1"/>
    <rect x="124" y="14" width="1" height="1"/>
    <rect x="124" y="15" width="1" height="1"/>
    <rect x="124" y="16" width="1" height="1"/>
    <rect x="124" y="17" width="1" height="1"/>
    <rect x="123" y="18" width="1" height="1"/>
    <rect x="124" y="18" width="1" height="1"/>
    <rect x="125" y="18" width="1" height="1"/>
    <rect x="128" y="12" width="1" height="1"/>
    <rect x="132" y="12" width="1" height="1"/>
    <rect x="128" y="13" width="1" height="1"/>
    <rect x="129" y="13" width="1" height="1"/>
    <rect x="132" y="13" width="1" height="1"/>
    <rect x="128" y="14" width="1" height="1"/>
    <rect x="130" y="14" width="1" height="1"/>
    <rect x="132" y="14" width="1" height="1"/>
    <rect x="128" y="15" width="1" height="1"/>
    <rect x="131" y="15" width="1" height="1"/>
    <rect x="132" y="15" width="1" height="1"/>
    <rect x="128" y="16" width="1" height="1"/>
    <rect x="132" y="16" width="1" height="1"/>
    <rect x="128" y="17" width="1" height="1"/>
    <rect x="132" y="17" width="1" height="1"/>
    <rect x="128" y="18" width="1" height="1"/>
    <rect x="132" y="18" width="1" height="1"/>
    <rect x="134" y="15" width="1" height="1"/>
    <rect x="137" y="12" width="1" height="1"/>
    <rect x="138" y="12" width="1" height="1"/>
    <rect x="139" y="12" width="1" height="1"/>
    <rect x="136" y="13" width="1" height="1"/>
    <rect x="140" y="13" width="1" height="1"/>
    <rect x="136" y="14" width="1" height="1"/>
    <rect x="140" y="14" width="1" height="1"/>
    <rect x="136" y="15" width="1" height="1"/>
    <rect x="140" y="15" width="1" height="1"/>
    <rect x="136" y="16" width="1" height="1"/>
    <rect x="140" y="16" width="1" height="1"/>
    <rect x="136" y="17" width="1" height="1"/>
    <rect x="140" y="17" width="1" height="1"/>
    <rect x="137" y="18" width="1" height="1"/>
    <rect x="138" y="18" width="1" height="1"/>
    <rect x="139" y="18" width="1" height="1"/>
    <rect x="143" y="12" width="1" height="1"/>
    <rect x="144" y="12" width="1" height="1"/>
    <rect x="145" y="12" width="1" height="1"/>
    <rect x="146" y="12" width="1" height="1"/>
    <rect x="142" y="13" width="1" height="1"/>
    <rect x="142" y="14" width="1" height="1"/>
    <rect x="143" y="15" width="1" height="1"/>
    <rect x="144" y="15" width="1" height="1"/>
    <rect x="145" y="15" width="1" height="1"/>
    <rect x="146" y="16" width="1" height="1"/>
    <rect x="146" y="17" width="1" height="1"/>
    <rect x="142" y="18" width="1" height="1"/>
    <rect x="143" y="18" width="1" height="1"/>
    <rect x="144" y="18" width="1" height="1"/>
    <rect x="145" y="18" width="1" height="1"/>
  </g>
  <g fill="#C8102E">
    <rect x="107" y="34" width="1" height="1"/>
    <rect x="108" y="34" width="1" height="1"/>
    <rect x="109" y="34" width="1" height="1"/>
    <rect x="110" y="34" width="1" height="1"/>
    <rect x="111" y="34" width="1" height="1"/>
    <rect x="112" y="34" width="1" height="1"/>
    <rect x="113" y="34" width="1" height="1"/>
    <rect x="114" y="34" width="1" height="1"/>
    <rect x="115" y="34" width="1" height="1"/>
    <rect x="116" y="34" width="1" height="1"/>
    <rect x="117" y="34" width="1" height="1"/>
    <rect x="123" y="34" width="1" height="1"/>
    <rect x="124" y="34" width="1" height="1"/>
    <rect x="125" y="34" width="1" height="1"/>
    <rect x="126" y="34" width="1" height="1"/>
    <rect x="127" y="34" width="1" height="1"/>
    <rect x="128" y="34" width="1" height="1"/>
    <rect x="129" y="34" width="1" height="1"/>
    <rect x="130" y="34" width="1" height="1"/>
    <rect x="131" y="34" width="1" height="1"/>
    <rect x="132" y="34" width="1" height="1"/>
    <rect x="133" y="34" width="1" height="1"/>
    <rect x="120" y="27" width="1" height="1"/>
    <rect x="120" y="28" width="1" height="1"/>
    <rect x="120" y="29" width="1" height="1"/>
    <rect x="120" y="30" width="1" height="1"/>
    <rect x="120" y="31" width="1" height="1"/>
  </g>
  <g fill="#2D8B8B">
    <rect x="118" y="32" width="1" height="1"/>
    <rect x="118" y="36" width="1" height="1"/>
    <rect x="118" y="32" width="1" height="1"/>
    <rect x="122" y="32" width="1" height="1"/>
    <rect x="119" y="32" width="1" height="1"/>
    <rect x="119" y="36" width="1" height="1"/>
    <rect x="118" y="33" width="1" height="1"/>
    <rect x="122" y="33" width="1" height="1"/>
    <rect x="120" y="32" width="1" height="1"/>
    <rect x="120" y="36" width="1" height="1"/>
    <rect x="118" y="34" width="1" height="1"/>
    <rect x="122" y="34" width="1" height="1"/>
    <rect x="121" y="32" width="1" height="1"/>
    <rect x="121" y="36" width="1" height="1"/>
    <rect x="118" y="35" width="1" height="1"/>
    <rect x="122" y="35" width="1" height="1"/>
    <rect x="122" y="32" width="1" height="1"/>
    <rect x="122" y="36" width="1" height="1"/>
    <rect x="118" y="36" width="1" height="1"/>
    <rect x="122" y="36" width="1" height="1"/>
  </g>
  <g fill="#1A1A1A">
    <rect x="105" y="33" width="2" height="2"/>
    <rect x="133" y="33" width="2" height="2"/>
    <rect x="119" y="25" width="2" height="2"/>
  </g>
</svg>
